<svg width="181" height="156" viewBox="0 0 181 156" fill="none" xmlns="http://www.w3.org/2000/svg">
<path d="M73.7591 22.8344C70.4251 15.1674 67.7835 7.52598 65.8856 0C51.6389 10.5261 38.7899 21.9882 27.4669 34.0913C29.1211 71.3878 45.7786 110.069 75.8109 141.801C57.5376 104.851 57.0119 61.2848 73.7591 22.8344Z" fill="#0045B0"/>
<path d="M7.34716 139.327C21.876 145.212 37.623 150.75 54.6268 155.725C48.9076 146.43 44.1373 136.25 40.4313 125.364C21.1835 103.184 8.71926 77.67 3.88486 51.6304C-2.05234 83.2472 -0.346839 113.364 7.34716 139.327Z" fill="#0045B0"/>
<path d="M107.241 22.8344C110.575 15.1674 113.216 7.52598 115.114 0C129.361 10.5261 142.21 21.9882 153.533 34.0913C151.879 71.3878 135.221 110.069 105.189 141.801C123.462 104.851 123.988 61.2848 107.241 22.8344Z" fill="#0045B0"/>
<path d="M173.653 139.327C159.124 145.212 143.377 150.75 126.373 155.725C132.092 146.43 136.863 136.25 140.569 125.364C159.817 103.184 172.281 77.67 177.115 51.6304C183.052 83.2472 181.36 113.364 173.653 139.327Z" fill="#0045B0"/>
</svg>
