<svg width="409" height="283" viewBox="0 0 409 283" fill="none" xmlns="http://www.w3.org/2000/svg">
<g clip-path="url(#clip0_159_629)">
<path d="M0 191.88H23.0435L42.2272 236.408L61.5391 191.88H84.5827V283H61.3981L61.5263 256.742L62.9369 238.344L62.1675 238.216L50.1905 269.486H34.3665L22.1331 238.216L21.4919 238.344L23.0307 256.742V283H0V191.88Z" fill="#0045B0"/>
<path d="M122.283 227.664H159.227V247.614H122.283V261.255H162.446V283H98.9833V191.88H162.446V213.497H122.283V227.664Z" fill="#0045B0"/>
<path d="M280.318 227.664H317.262V247.614H280.318V261.255H320.481V283H257.018V191.88H320.481V213.497H280.318V227.664Z" fill="#0045B0"/>
<path d="M359.181 254.05H355.065V283.013H331.765V191.893H368.196C386.995 191.893 401.537 200.522 402.05 221.882C402.05 238.741 395.228 248.267 384.161 251.742L409 283.013H380.301L359.181 254.05ZM368.581 234.228C383.123 234.228 383.123 213.381 368.581 213.381H355.065V234.228H368.581Z" fill="#0045B0"/>
<path d="M227.293 236.69L252.286 191.88H225.511L214.701 212.984L227.293 236.69Z" fill="#0045B0"/>
<path d="M209.597 223.125L209.431 222.792L193.978 191.88H167.075L192.683 237.575L167.075 283H193.978L209.546 251.986L225.511 283H252.286L226.883 237.729L209.597 223.125Z" fill="#0045B0"/>
<path d="M187.759 22.8344C184.425 15.1674 181.783 7.52598 179.886 0C165.639 10.5261 152.79 21.9882 141.467 34.0913C143.121 71.3878 159.779 110.069 189.811 141.801C171.538 104.851 171.012 61.2848 187.759 22.8344Z" fill="#0045B0"/>
<path d="M121.347 139.327C135.876 145.212 151.623 150.75 168.627 155.725C162.908 146.43 158.137 136.25 154.431 125.364C135.184 103.184 122.719 77.67 117.885 51.6304C111.948 83.2472 113.653 113.364 121.347 139.327Z" fill="#0045B0"/>
<path d="M221.241 22.8344C224.575 15.1674 227.216 7.52598 229.114 0C243.361 10.5261 256.21 21.9882 267.533 34.0913C265.879 71.3878 249.221 110.069 219.189 141.801C237.462 104.851 237.988 61.2848 221.241 22.8344Z" fill="#0045B0"/>
<path d="M287.653 139.327C273.124 145.212 257.377 150.75 240.373 155.725C246.092 146.43 250.863 136.25 254.569 125.364C273.817 103.184 286.281 77.67 291.115 51.6304C297.052 83.2472 295.36 113.364 287.653 139.327Z" fill="#0045B0"/>
</g>
<defs>
<clipPath id="clip0_159_629">
<rect width="409" height="283" fill="white"/>
</clipPath>
</defs>
</svg>
