<svg width="409" height="92" viewBox="0 0 409 92" fill="none" xmlns="http://www.w3.org/2000/svg">
<path d="M0 0.880371H23.0435L42.2272 45.408L61.5391 0.880371H84.5827V91.9999H61.3981L61.5263 65.7423L62.9369 47.344L62.1675 47.2158L50.1905 78.4865H34.3665L22.1331 47.2158L21.4919 47.344L23.0307 65.7423V91.9999H0V0.880371Z" fill="#0045B0"/>
<path d="M122.283 36.664H159.227V56.6137H122.283V70.2553H162.446V91.9999H98.9833V0.880371H162.446V22.4967H122.283V36.664Z" fill="#0045B0"/>
<path d="M280.318 36.664H317.262V56.6137H280.318V70.2553H320.481V91.9999H257.018V0.880371H320.481V22.4967H280.318V36.664Z" fill="#0045B0"/>
<path d="M359.181 63.0497H355.065V92.0126H331.765V0.893066H368.196C386.995 0.893066 401.537 9.52166 402.05 30.8816C402.05 47.7413 395.228 57.2674 384.161 60.7419L409 92.0126H380.301L359.181 63.0497ZM368.581 43.2283C383.123 43.2283 383.123 22.3812 368.581 22.3812H355.065V43.2283H368.581Z" fill="#0045B0"/>
<path d="M227.293 45.6901L252.286 0.880371H225.511L214.701 21.9839L227.293 45.6901Z" fill="#0045B0"/>
<path d="M209.597 32.1254L209.431 31.792L193.978 0.880371H167.075L192.683 46.5747L167.075 91.9999H193.978L209.546 60.9856L225.511 91.9999H252.286L226.883 46.7286L209.597 32.1254Z" fill="#0045B0"/>
</svg>
