<svg width="120" height="20" viewBox="0 0 119 21" fill="none" xmlns="http://www.w3.org/2000/svg">
<path d="M37.3415 2.6961H41.8904L45.6774 10.5229L49.4871 2.6961H54.036V18.7126H49.4618L49.4871 14.0972L49.7656 10.8632L49.6137 10.8407L47.2494 16.3372H44.1256L41.7107 10.8407L41.5841 10.8632L41.8879 14.0972V18.7126H37.3415V2.6961Z" fill="black"/>
<path d="M61.4808 8.98595H68.7737V12.4926H61.4808V14.8882H69.4091V18.7103H56.8813V2.6961H69.4091V6.4957H61.4808V8.98595Z" fill="black"/>
<path d="M92.6776 8.98595H99.9705V12.4926H92.6776V14.8882H100.606V18.7103H88.078V2.6961H100.606V6.4957H92.6776V8.98595Z" fill="black"/>
<path d="M108.246 13.6216H107.433V18.7126H102.833V2.6961H110.025C113.736 2.6961 116.607 4.21279 116.708 7.96731C116.708 10.9308 115.361 12.6053 113.177 13.216L118.08 18.7126H112.415L108.246 13.6216ZM110.101 10.1375C112.972 10.1375 112.972 6.47317 110.101 6.47317H107.433V10.1375H110.101Z" fill="black"/>
<path d="M82.2103 10.5702L87.144 2.6961H81.8584L79.7245 6.40556L82.2103 10.5702Z" fill="black"/>
<path d="M78.717 8.18817L78.6841 8.12732L75.6338 2.6961H70.3229L75.3781 10.7257L70.3229 18.7126H75.6338L78.7069 13.2611L81.8584 18.7126H87.144L82.1293 10.755L78.717 8.18817Z" fill="black"/>
<path d="M11.0538 3.04556C10.552 2.02296 10.1544 1.00379 9.8687 0C7.72427 1.40393 5.79023 2.9327 4.08588 4.54696C4.33488 9.52144 6.84218 14.6806 11.3627 18.9129C8.61216 13.9846 8.53302 8.17393 11.0538 3.04556Z" fill="black"/>
<path d="M1.05743 18.5829C3.24432 19.3678 5.61458 20.1065 8.174 20.77C7.31314 19.5302 6.59512 18.1725 6.03729 16.7207C3.14009 13.7623 1.26396 10.3593 0.536282 6.88628C-0.357391 11.1032 -0.100678 15.1201 1.05743 18.5829Z" fill="black"/>
<path d="M16.0935 3.04556C16.5954 2.02296 16.993 1.00379 17.2787 0C19.4231 1.40393 21.3571 2.9327 23.0615 4.54696C22.8125 9.52144 20.3052 14.6806 15.7847 18.9129C18.5352 13.9846 18.6143 8.17393 16.0935 3.04556Z" fill="black"/>
<path d="M26.0899 18.5829C23.903 19.3678 21.5328 20.1065 18.9734 20.77C19.8342 19.5302 20.5522 18.1725 21.1101 16.7207C24.0073 13.7623 25.8834 10.3593 26.6111 6.88628C27.5048 11.1032 27.25 15.1201 26.0899 18.5829Z" fill="black"/>
</svg>
